# xmcd
#
# Track frame offsets:
#	150
#	13445
#	30432
#	51127
#	68935
#	88400
#	103317
#	121495
#	140010
#	158565
#	178162
#	198280
#	224052
#	242987
#	261955
#
# Disc length: 3734 seconds
#
# Revision: 13
# Processed by: cddbd v1.5.2PL0 Copyright (c) Steve Scherf et al.
# Submitted via: EZCDAudioConverter 8.2.2.1
#
DISCID=ec0e940f
DTITLE=ZEZÉ DI CAMARGO and LUCIANO - AO VIVO [CD 2-495606) COLUMBIA [CD 01)
DYEAR=2001
DGENRE=Sertanejo (BR)
TTITLE0=ABERTURA (BY GILMAR SINISTRO)
TTITLE1=VEM FICAR COMIGO (AO VIVO) (BY GILMAR SINISTRO)
TTITLE2=VIVENDO POR VIVER (AO VIVO) (BY GILMAR SINISTRO)
TTITLE3=PÃO DE MEL (AO VIVO) (BY GILMAR SINISTRO)
TTITLE4=PARE! (AO VIVO) (BY GILMAR SINISTRO)
TTITLE5=COMO UM ANJO (AO VIVO) (BY GILMAR SINISTRO)
TTITLE6=DOIS CORAÇÕES E UMA HISTÓRIA (AO VIVO) (BY GILMAR SINISTRO)
TTITLE7=PIOR É TE PERDER (AO VIVO) (BY GILMAR SINISTRO)
TTITLE8=INDIFERENÇA (AO VIVO) (BY GILMAR SINISTRO)
TTITLE9=TÁ ESCRITO EM MEU OLHAR (AO VIVO) (BY GILMAR SINISTRO)
TTITLE10=É O AMOR (AO VIVO) (BY GILMAR SINISTRO)
TTITLE11=PRECISO SER AMADO (AO VIVO) (BY GILMAR SINISTRO)
TTITLE12=SEM MEDO DE SER FELIZ (AO VIVO) (BY GILMAR SINISTRO)
TTITLE13=EU SÓ PENSO EM VOCÊ (ALWAYS ON MY MIND) (AO VIVO) (BY GILMAR SINISTRO
TTITLE13=)
TTITLE14=DA BOCA PRA FORA (AO VIVO) (BY GILMAR SINISTRO)
EXTD=
EXTT0=
EXTT1=
EXTT2=
EXTT3=
EXTT4=
EXTT5=
EXTT6=
EXTT7=
EXTT8=
EXTT9=
EXTT10=
EXTT11=
EXTT12=
EXTT13=
EXTT14=
PLAYORDER=
